<svg width="122" height="97" viewBox="0 0 122 97" fill="none" xmlns="http://www.w3.org/2000/svg">
<g clip-path="url(#clip0_1_759)">
<path d="M121.851 80.5018C121.851 89.3376 112.735 96.5669 101.593 96.5669H20.5609C9.41894 96.5669 0.302795 89.3376 0.302795 80.5018V16.2413C0.302795 7.40551 9.41894 0.176208 20.5609 0.176208H101.593C112.735 0.176208 121.851 7.40551 121.851 16.2413V80.5018Z" fill="#563D7C"/>
<path d="M33.3312 21.1241H67.7898C74.1453 21.1241 79.2495 22.2738 83.0827 24.5891C86.9159 26.9044 88.8424 30.3851 88.8424 35.0629C88.8424 37.8979 87.9685 40.3235 86.2207 42.3395C84.473 44.3555 81.9705 45.9305 78.7133 47.033V47.1905C83.0827 47.9308 86.3995 49.5688 88.6438 52.1045C90.888 54.6561 92.0201 57.8376 92.0201 61.6806C92.0201 63.8856 91.5236 65.9489 90.5305 67.8547C89.5375 69.7762 87.9883 71.4299 85.8632 72.8159C83.7381 74.2019 81.037 75.3045 77.7203 76.1235C74.4035 76.9425 70.471 77.352 65.903 77.352H33.3312V21.1241ZM45.7442 44.6705H66.0023C68.9815 44.6705 71.4641 44.009 73.4502 42.6545C75.4363 41.3 76.4293 39.3785 76.4293 36.8584C76.4293 34.0234 75.5356 32.0232 73.7481 30.8734C71.9606 29.7236 69.3787 29.1409 66.0023 29.1409H45.7442V44.6705ZM45.7442 69.3194H67.6905C71.4641 69.3194 74.4035 68.5477 76.469 66.9884C78.5544 65.4449 79.607 63.2399 79.607 60.4049C79.607 57.6171 78.5743 55.4908 76.469 53.9788C74.3638 52.4668 71.4641 51.7423 67.6905 51.7423H45.7442V69.3194Z" fill="white"/>
</g>
<defs>
<clipPath id="clip0_1_759">
<rect width="121.549" height="96.3907" fill="white" transform="translate(0.302795 0.176208)"/>
</clipPath>
</defs>
</svg>
