<svg width="89" height="97" viewBox="0 0 89 97" fill="none" xmlns="http://www.w3.org/2000/svg">
<g clip-path="url(#clip0_1_767)">
<path d="M22.6095 96.5309C34.7185 96.5309 44.5461 89.3338 44.5461 80.4658V64.4007H22.6095C10.5004 64.4007 0.672792 71.5979 0.672792 80.4658C0.672792 89.3338 10.5004 96.5309 22.6095 96.5309Z" fill="#0ACF83"/>
<path d="M0.672792 48.3353C0.672792 39.4674 10.5004 32.2702 22.6095 32.2702H44.5461V64.4004H22.6095C10.5004 64.4004 0.672792 57.2033 0.672792 48.3353Z" fill="#A259FF"/>
<path d="M0.6702 16.2052C0.6702 7.3373 10.4978 0.140137 22.6069 0.140137H44.5435V32.2704H22.6069C10.4978 32.2704 0.6702 25.0732 0.6702 16.2052Z" fill="#F24E1E"/>
<path d="M44.5474 0.140137H66.4841C78.5931 0.140137 88.4207 7.3373 88.4207 16.2052C88.4207 25.0732 78.5931 32.2704 66.4841 32.2704H44.5474V0.140137Z" fill="#FF7262"/>
<path d="M88.4207 48.3353C88.4207 57.2033 78.5931 64.4004 66.484 64.4004C54.375 64.4004 44.5474 57.2033 44.5474 48.3353C44.5474 39.4674 54.375 32.2702 66.484 32.2702C78.5931 32.2702 88.4207 39.4674 88.4207 48.3353Z" fill="#1ABCFE"/>
</g>
<defs>
<clipPath id="clip0_1_767">
<rect width="87.7642" height="96.3907" fill="white" transform="translate(0.665283 0.140137)"/>
</clipPath>
</defs>
</svg>
