<svg width="123" height="98" viewBox="0 0 123 98" fill="none" xmlns="http://www.w3.org/2000/svg">
<path d="M0.932251 0.62207H122.481V97.0127H0.932251V0.62207Z" fill="#F7DF1E"/>
<path d="M32.8921 81.1729L42.1939 76.7088C43.9884 79.232 45.6208 81.3668 49.5364 81.3668C53.2897 81.3668 55.6561 80.2025 55.6561 75.6736V44.8745H67.0785V75.8017C67.0785 85.1837 60.1437 89.4541 50.026 89.4541C40.8885 89.4541 35.5843 85.7012 32.8919 81.1722" fill="black"/>
<path d="M73.2825 80.2025L82.5831 75.9321C85.0314 79.1029 88.2135 81.432 93.843 81.432C98.5758 81.432 101.594 79.5555 101.594 76.9673C101.594 73.8615 98.4936 72.7614 93.2717 70.9504L90.4168 69.9791C82.1756 67.1974 76.7088 63.7035 76.7088 56.3271C76.7088 49.5333 83.236 44.3568 93.4353 44.3568C100.697 44.3568 105.919 46.3628 109.671 51.6039L100.778 56.1328C98.8197 53.3508 96.699 52.2511 93.4355 52.2511C90.0902 52.2511 87.9687 53.9333 87.9687 56.1328C87.9687 58.8504 90.0902 59.9507 94.9851 61.6331L97.8406 62.6036C107.55 65.9036 113.017 69.2678 113.017 76.8378C113.017 84.991 104.939 89.4551 94.088 89.4551C83.4812 89.4551 76.6274 85.4437 73.2827 80.2025" fill="black"/>
</svg>
