<svg width="131" height="97" viewBox="0 0 131 97" fill="none" xmlns="http://www.w3.org/2000/svg">
<path d="M120.152 74.666C113.076 74.5328 107.591 75.0674 102.992 76.5363C101.665 76.9369 99.5415 76.9373 99.3645 78.206C100.073 78.7406 100.161 79.6087 100.78 80.3432C101.842 81.6785 103.699 83.4822 105.38 84.4173C107.237 85.4857 109.095 86.5541 111.041 87.4893C114.491 89.0923 118.383 90.027 121.744 91.6301C123.691 92.5644 125.636 93.7673 127.582 94.769C128.556 95.3028 129.174 96.1714 130.413 96.5053V96.305C129.794 95.7038 129.617 94.8357 128.998 94.1678C128.114 93.4999 127.229 92.8987 126.344 92.2309C123.779 89.6265 120.595 87.3556 117.145 85.4857C114.314 84.0164 108.122 82.0128 106.972 79.5417C106.972 79.5417 106.883 79.4751 106.795 79.4084C108.741 79.2748 111.041 78.7406 112.899 78.3396C115.907 77.7384 118.649 77.872 121.744 77.2712C123.16 77.0039 124.575 76.67 125.99 76.3361V75.7353C124.399 74.5328 123.248 72.9302 121.567 71.7948C117.056 68.8556 112.102 65.9843 106.972 63.5802C104.23 62.2445 100.691 61.376 97.7724 60.241C96.7114 59.8396 94.9417 59.6397 94.323 58.9719C92.7303 57.5025 91.8457 55.566 90.6959 53.8293C88.1316 50.1557 85.6538 46.0824 83.4424 42.2089C81.8508 39.6042 80.8775 36.9993 78.9313 34.5953C69.8205 23.2418 59.9132 16.363 44.6986 9.61742C41.4256 8.2151 37.5339 7.61387 33.3763 6.8794C31.1654 6.81236 28.9535 6.67913 26.742 6.61209C25.327 6.1445 23.9113 4.87584 22.6727 4.27461C17.6317 1.87008 4.62792 -3.33867 0.912654 3.54014C-1.47578 7.88119 4.45091 12.1552 6.48527 14.3594C7.98971 15.8954 9.9353 17.6316 10.9969 19.3683C11.6162 20.5029 11.7927 21.7058 12.412 22.9079C13.8276 25.8457 15.1539 29.1188 17.0118 31.8573C17.9852 33.2596 19.0462 34.7289 20.2848 35.9976C20.9924 36.7321 22.2304 37.0664 22.4962 38.2685C21.2582 39.6042 21.1694 41.6077 20.4613 43.2774C17.2771 50.824 18.5157 60.174 23.0267 65.717C24.4418 67.3862 27.8036 71.0603 32.3147 69.6575C36.2952 68.4555 35.4107 64.6486 36.5605 61.3094C36.8263 60.5074 36.6493 59.9737 37.1798 59.4395C37.1802 59.5061 37.1798 59.5731 37.1798 59.5731C38.4184 61.443 39.6565 63.2463 40.8063 65.1162C43.5488 68.3884 48.3251 71.7947 52.3056 74.0656C54.4293 75.2672 56.1097 77.3378 58.7634 78.0727V77.872H58.5863C58.0553 77.2708 57.2595 77.0039 56.5519 76.5363C54.9598 75.3343 53.1901 73.8649 51.9521 72.5292C48.2374 68.789 44.9638 64.6486 42.0449 60.3742C40.6298 58.3041 39.3912 56.0332 38.2414 53.963C37.7103 53.1611 37.7103 51.9594 36.8257 51.5589C35.4989 53.0278 33.5533 54.2969 32.5799 56.1002C30.9002 58.9719 30.7226 62.5114 30.1033 66.1846C29.7498 66.2516 29.9262 66.1846 29.7492 66.3183C26.9191 65.7836 25.9457 63.5802 24.8841 61.7099C22.2304 56.9683 21.7881 49.3546 24.0883 43.8786C24.7076 42.4759 27.3613 38.0682 26.2997 36.7325C25.7692 35.4634 23.9995 34.7289 23.0267 33.7271C21.8769 32.4581 20.6383 30.8555 19.8425 29.4527C17.7193 25.7129 16.6578 21.5722 14.3581 17.8319C13.2965 16.0953 11.4392 14.2924 9.9353 12.6898C8.25497 10.8865 6.39704 9.61742 5.07018 7.4802C4.62846 6.74573 4.00859 5.54369 4.71613 4.74218C4.89315 4.20798 5.24664 4.00771 5.95474 3.87405C7.10456 3.13916 10.3776 4.07432 11.5274 4.47487C14.8004 5.47622 17.5423 6.41181 20.2848 7.81413C21.5228 8.48198 22.8497 9.75107 24.4418 10.085H26.2997C29.1304 10.5522 32.3146 10.2186 34.9683 10.8195C39.657 11.9545 43.9022 13.6245 47.7063 15.4278C59.2944 20.9709 68.847 28.8519 75.3048 38.2685C76.3664 39.804 76.8081 41.2072 77.7815 42.8098C79.6394 46.0824 81.9391 49.4217 83.7964 52.6273C85.6538 55.7659 87.4229 58.9719 90.0766 61.5767C91.404 62.9786 96.7108 63.7135 99.0992 64.4484C100.868 65.0492 103.611 65.5838 105.203 66.3183C108.21 67.7202 111.218 69.3236 114.049 70.8596C115.464 71.6607 119.886 73.3307 120.152 74.666L120.152 74.666Z" fill="#00546B"/>
</svg>
