<svg width="135" height="97" viewBox="0 0 135 97" fill="none" xmlns="http://www.w3.org/2000/svg">
<path d="M0.617554 47.9381C0.617554 55.9907 10.4708 63.508 26.0053 67.7452C22.9032 80.208 25.4493 90.2529 33.9537 94.167C42.6953 98.1899 55.7182 95.4052 68.0786 86.7829C80.1272 95.0571 92.3045 98.3134 100.801 94.3882C109.534 90.3537 112.19 79.6275 109.003 66.7757C125.183 62.5067 134.233 56.0967 134.233 47.9381C134.233 40.0723 124.362 33.2673 109.037 29.0572C112.469 15.6742 109.561 5.87308 100.704 1.79735C92.1657 -2.1319 79.8471 1.29285 67.6213 9.78374C54.9024 0.771326 42.7053 -1.98028 33.8575 2.10733C25.3273 6.04775 22.8931 16.2752 26.0053 28.9687C10.9953 33.145 0.617554 40.1037 0.617554 47.9381Z" fill="white"/>
<path d="M105.789 33.2379C104.558 32.8997 103.283 32.5798 101.969 32.2773C102.185 31.5742 102.383 30.8802 102.56 30.1981C105.451 18.9969 103.56 9.97319 97.1046 7.00219C90.9143 4.1534 80.7904 7.12372 70.5657 14.2247C69.5825 14.9076 68.5966 15.6305 67.611 16.3882C66.9543 15.8869 66.2987 15.4024 65.6448 14.9391C54.9291 7.34622 44.1882 4.14649 37.7387 7.12609C31.5542 9.98314 29.7228 18.4663 32.3256 29.0817C32.5769 30.1071 32.8707 31.1542 33.203 32.2188C31.6829 32.5631 30.2153 32.9303 28.8111 33.3208C16.2481 36.8162 8.22479 42.2943 8.22479 47.9766C8.22479 53.8452 16.8378 59.7316 29.9232 63.3008C30.9558 63.5825 32.0274 63.8488 33.1316 64.1016C32.7732 65.253 32.4614 66.3814 32.1997 67.4819C29.7179 77.9131 31.656 86.1958 37.824 89.0349C44.195 91.9667 54.8873 88.9531 65.2988 81.6903C66.1217 81.1162 66.9476 80.5073 67.7749 79.8692C68.8473 80.6933 69.9179 81.4732 70.9829 82.2047C81.0677 89.1303 91.0281 91.9268 97.1904 89.0799C103.555 86.1395 105.623 77.2419 102.938 66.4164C102.733 65.5897 102.494 64.745 102.226 63.8854C102.977 63.7082 103.714 63.5253 104.433 63.3352C118.037 59.7383 126.887 53.9236 126.887 47.9766C126.887 42.2737 118.605 36.7587 105.789 33.2379Z" fill="#53C1DE"/>
<path d="M102.839 59.4955C102.19 59.6669 101.524 59.8326 100.846 59.9932C99.344 56.1992 97.3172 52.1647 94.8369 47.9965C97.2038 43.9275 99.1522 39.9446 100.612 36.1752C101.826 36.4555 103.004 36.7512 104.139 37.0632C115.12 40.0798 121.818 44.54 121.818 47.9768C121.818 51.6375 114.584 56.3896 102.839 59.4955ZM97.9652 67.2023C99.1527 71.9892 99.3223 76.317 98.5357 79.7003C97.829 82.7404 96.4077 84.7673 94.6504 85.5791C90.9107 87.3065 82.9136 85.0611 74.2889 79.1384C73.3002 78.4594 72.3043 77.7344 71.3053 76.9672C74.6489 74.0489 77.9905 70.6564 81.252 66.8886C86.9884 66.4824 92.4081 65.8183 97.3229 64.9116C97.5649 65.6908 97.78 66.4551 97.9652 67.2023ZM48.6796 85.2806C45.026 86.3103 42.116 86.3398 40.357 85.5304C36.614 83.8076 35.058 77.1573 37.1805 68.2366C37.4236 67.2149 37.713 66.1655 38.0465 65.0928C42.9075 65.9506 48.2874 66.5678 54.0376 66.9398C57.321 70.6267 60.7592 74.0156 64.224 76.9828C63.467 77.5661 62.7129 78.1213 61.9631 78.6445C57.3592 81.856 52.7456 84.1346 48.6796 85.2806ZM31.5627 59.4731C25.7766 57.8949 20.9983 55.8437 17.7229 53.6054C14.7798 51.594 13.2939 49.5971 13.2939 47.9768C13.2939 44.5286 19.7358 40.1304 30.4798 37.141C31.7835 36.7783 33.1481 36.4365 34.5644 36.1154C36.0492 39.9699 37.9971 44 40.3477 48.0752C37.9667 52.2109 35.9911 56.3052 34.4917 60.2049C33.4821 59.9733 32.5039 59.7296 31.5627 59.4731ZM37.3005 28.3051C35.0704 19.21 36.5515 12.3491 40.2784 10.6274C44.2483 8.79333 53.0267 11.4083 62.2789 17.9644C62.8703 18.3834 63.464 18.822 64.0595 19.2758C60.6117 22.2301 57.205 25.5935 53.9508 29.2586C48.37 29.6714 43.0279 30.3345 38.1162 31.2225C37.8074 30.2312 37.5339 29.2572 37.3005 28.3051ZM88.4862 38.3914C87.312 36.7729 86.1066 35.1927 84.8777 33.6556C88.6638 34.0375 92.2913 34.5446 95.6978 35.165C94.6751 37.7807 93.4004 40.5156 91.8999 43.3192C90.8235 41.6884 89.685 40.0441 88.4862 38.3914ZM67.6128 22.1669C69.951 24.1884 72.2925 26.4454 74.5956 28.8942C72.2748 28.8067 69.9252 28.7612 67.5562 28.7612C65.2095 28.7612 62.8773 28.8057 60.5708 28.8916C62.8762 26.4656 65.2381 24.2116 67.6128 22.1669ZM46.6057 38.4194C45.4328 40.0424 44.3154 41.6778 43.256 43.3161C41.7798 40.5223 40.5169 37.775 39.4853 35.1222C42.8709 34.5176 46.4813 34.0232 50.2433 33.6485C48.9971 35.1997 47.7817 36.7916 46.6057 38.419V38.4194ZM50.3516 62.5936C46.4648 62.2475 42.8002 61.7786 39.4154 61.1907C40.4635 58.4905 41.7542 55.6846 43.2617 52.8305C44.3239 54.4677 45.4457 56.1038 46.6257 57.7304H46.626C47.828 59.3874 49.0733 61.0107 50.3516 62.5936ZM67.753 74.0719C65.3504 72.0031 62.9539 69.7148 60.6134 67.2534C62.8855 67.3245 65.2019 67.3609 67.5562 67.3609C69.9748 67.3609 72.3658 67.3174 74.7192 67.2338C72.4085 69.7396 70.0754 72.0315 67.753 74.0719ZM91.9482 52.6851C93.5343 55.5699 94.8713 58.3613 95.9329 61.0154C92.4923 61.6417 88.7776 62.1462 84.8638 62.5211C86.0956 60.9633 87.3116 59.3559 88.5064 57.7025C89.7152 56.0298 90.863 54.3545 91.9482 52.6851ZM84.1154 55.6815C82.2605 58.2482 80.3562 60.6983 78.4229 63.0111C74.9017 63.212 71.2639 63.3155 67.5562 63.3155C63.8634 63.3155 60.2715 63.224 56.8126 63.0448C54.8014 60.7017 52.8556 58.2443 51.0125 55.7036H51.013C49.1747 53.1699 47.4829 50.6147 45.9499 48.0738C47.4824 45.5271 49.1699 42.9691 50.9975 40.4399L50.9971 40.4404C52.8296 37.9044 54.7583 35.459 56.7509 33.1305C60.2799 32.9176 63.8987 32.8066 67.556 32.8066H67.5562C71.2299 32.8066 74.8533 32.9185 78.3813 33.1332C80.3435 35.4447 82.259 37.8822 84.0988 40.4185C85.9594 42.9832 87.6685 45.5242 89.2142 48.0164C87.6732 50.5513 85.9678 53.1179 84.1154 55.6815ZM94.5726 10.5071C98.5463 12.3357 100.092 19.7108 97.5949 29.3818C97.4357 29.9989 97.2564 30.6274 97.0616 31.2644C92.1386 30.3579 86.7926 29.6834 81.1956 29.2643C77.935 25.5589 74.5561 22.1903 71.1646 19.2739C72.0764 18.5739 72.987 17.9064 73.8938 17.2765C82.6542 11.1924 90.8421 8.79029 94.5726 10.5071Z" fill="white"/>
<path d="M67.558 39.5208C73.41 39.5208 78.1541 43.3066 78.1541 47.9768C78.1541 52.6469 73.41 56.4329 67.558 56.4329C61.706 56.4329 56.9618 52.6469 56.9618 47.9768C56.9618 43.3066 61.706 39.5208 67.558 39.5208Z" fill="#53C1DE"/>
</svg>
